<svg width="75" height="50" viewBox="0 0 75 50" fill="none" xmlns="http://www.w3.org/2000/svg">
<g filter="url(#filter0_d_241_590)">
<path fill-rule="evenodd" clip-rule="evenodd" d="M38 40C49.0457 40 58 31.0457 58 20C58 8.9543 49.0457 0 38 0C26.9543 0 18 8.9543 18 20C18 31.0457 26.9543 40 38 40Z" fill="#4090FE"/>
<path fill-rule="evenodd" clip-rule="evenodd" d="M43.25 12.75C42.7202 12.75 42.2917 12.3207 42.2917 11.7916V10.8253L44.2085 10.8243V11.7916C44.2085 12.3207 43.78 12.75 43.25 12.75ZM44.2085 8.91663V10.8243L47.0833 10.8228V14.6666H27.9084L27.906 10.8333L30.7917 10.8317V11.7916C30.7917 12.3207 31.2212 12.75 31.75 12.75C32.2791 12.75 32.7085 12.3207 32.7085 11.7916V10.8306L42.2917 10.8253V8.91663H44.2085ZM49 15.625C49 15.0959 48.5715 14.6666 48.0417 14.6666H47.0833V16.5833H27.9094L27.9084 14.6666H26.9583C26.4294 14.6666 26 15.0959 26 15.625V10.8228C26 9.77246 26.8557 8.91663 27.906 8.91663H30.7917V10.8317L32.7085 10.8306V8.91663H42.2917V7.95837C42.2917 7.42932 42.7202 7 43.25 7C43.78 7 44.2085 7.42932 44.2085 7.95837V8.91663H47.093C48.1443 8.91663 49 9.77246 49 10.8228V15.625ZM32.7085 8.91663V7.95837C32.7085 7.42932 32.2791 7 31.75 7C31.2212 7 30.7917 7.42932 30.7917 7.95837V8.91663H32.7085ZM49 15.625V28.0929C49 29.1442 48.1443 30 47.094 30H27.906C26.8557 30 26 29.1442 26 28.0939V15.625C26 16.1539 26.4294 16.5833 26.9583 16.5833H27.9094L27.9165 28.0939L47.0833 28.0833V16.5833H48.0417C48.5715 16.5833 49 16.1539 49 15.625ZM37.5 26.1666C36.9712 26.1666 36.5417 25.7383 36.5417 25.2084V23.2916H38.4585V25.2084C38.4585 25.7383 38.0291 26.1666 37.5 26.1666ZM38.4585 21.375H40.375C40.905 21.375 41.3335 21.8033 41.3335 22.3334C41.3335 22.8633 40.905 23.2916 40.375 23.2916H38.4585V21.375ZM38.4585 21.375H36.5417V19.4584C36.5417 18.9293 36.9712 18.5 37.5 18.5C38.0291 18.5 38.4585 18.9293 38.4585 19.4584V21.375ZM36.5417 21.375V23.2916H34.625C34.0962 23.2916 33.6667 22.8633 33.6667 22.3334C33.6667 21.8033 34.0962 21.375 34.625 21.375H36.5417Z" fill="white"/>
</g>
<defs>
<filter id="filter0_d_241_590" x="14" y="0" width="48" height="48" filterUnits="userSpaceOnUse" color-interpolation-filters="sRGB">
<feFlood flood-opacity="0" result="BackgroundImageFix"/>
<feColorMatrix in="SourceAlpha" type="matrix" values="0 0 0 0 0 0 0 0 0 0 0 0 0 0 0 0 0 0 127 0" result="hardAlpha"/>
<feOffset dy="4"/>
<feGaussianBlur stdDeviation="2"/>
<feComposite in2="hardAlpha" operator="out"/>
<feColorMatrix type="matrix" values="0 0 0 0 0 0 0 0 0 0 0 0 0 0 0 0 0 0 0.25 0"/>
<feBlend mode="normal" in2="BackgroundImageFix" result="effect1_dropShadow_241_590"/>
<feBlend mode="normal" in="SourceGraphic" in2="effect1_dropShadow_241_590" result="shape"/>
</filter>
</defs>
</svg>
