<svg width="277" height="40" viewBox="0 0 277 40" fill="none" xmlns="http://www.w3.org/2000/svg">
<g filter="url(#filter0_d_103_3265)">
<mask id="path-1-outside-1_103_3265" maskUnits="userSpaceOnUse" x="3" y="-1" width="271" height="34" fill="black">
<rect fill="white" x="3" y="-1" width="271" height="34"/>
<path d="M32.3228 25.5508C32.3228 26.6055 31.4805 27.7993 29.7959 29.1323C28.1113 30.4653 24.9912 31.1318 20.4355 31.1318C15.8799 31.1318 12.1299 29.7183 9.18555 26.8911C6.24121 24.0493 4.76904 20.3359 4.76904 15.751C4.76904 11.166 6.23389 7.45264 9.16357 4.61084C12.0933 1.75439 15.8652 0.326172 20.4795 0.326172C25.1084 0.326172 28.2358 0.992676 29.8618 2.32568C31.5024 3.65869 32.3228 4.85986 32.3228 5.9292C32.3228 6.98389 31.9712 7.92871 31.2681 8.76367C30.5649 9.58398 29.7886 9.99414 28.939 9.99414C28.104 9.99414 26.771 9.67188 24.9399 9.02734C23.1235 8.38281 21.7612 8.06055 20.853 8.06055C15.9312 8.06055 13.4702 10.6167 13.4702 15.729C13.4702 20.8413 15.9312 23.3975 20.853 23.3975C21.7612 23.3975 23.1235 23.0752 24.9399 22.4307C26.771 21.7861 28.104 21.4639 28.939 21.4639C29.7886 21.4639 30.5649 21.8813 31.2681 22.7163C31.9712 23.5366 32.3228 24.4814 32.3228 25.5508ZM49.7734 30.8682H38.6113C35.7109 30.8682 34.2607 29.5938 34.2607 27.0449V5.02832C34.2607 2.47949 35.7109 1.20508 38.6113 1.20508C41.5117 1.20508 42.9619 2.47949 42.9619 5.02832V23.8809H49.7734C51.5898 23.8809 52.498 25.0454 52.498 27.3745C52.498 29.7036 51.5898 30.8682 49.7734 30.8682ZM63.1152 27.0449C63.1152 29.5938 61.665 30.8682 58.7646 30.8682C55.8643 30.8682 54.4141 29.5938 54.4141 27.0449V5.02832C54.4141 2.47949 55.8643 1.20508 58.7646 1.20508C61.665 1.20508 63.1152 2.47949 63.1152 5.02832V27.0449ZM92.2554 25.5508C92.2554 26.6055 91.4131 27.7993 89.7285 29.1323C88.0439 30.4653 84.9238 31.1318 80.3682 31.1318C75.8125 31.1318 72.0625 29.7183 69.1182 26.8911C66.1738 24.0493 64.7017 20.3359 64.7017 15.751C64.7017 11.166 66.1665 7.45264 69.0962 4.61084C72.0259 1.75439 75.7979 0.326172 80.4121 0.326172C85.041 0.326172 88.1685 0.992676 89.7944 2.32568C91.4351 3.65869 92.2554 4.85986 92.2554 5.9292C92.2554 6.98389 91.9038 7.92871 91.2007 8.76367C90.4976 9.58398 89.7212 9.99414 88.8716 9.99414C88.0366 9.99414 86.7036 9.67188 84.8726 9.02734C83.0562 8.38281 81.6938 8.06055 80.7856 8.06055C75.8638 8.06055 73.4028 10.6167 73.4028 15.729C73.4028 20.8413 75.8638 23.3975 80.7856 23.3975C81.6938 23.3975 83.0562 23.0752 84.8726 22.4307C86.7036 21.7861 88.0366 21.4639 88.8716 21.4639C89.7212 21.4639 90.4976 21.8813 91.2007 22.7163C91.9038 23.5366 92.2554 24.4814 92.2554 25.5508ZM110.937 15.9707L118.1 23.8809C119.125 25.0234 119.638 26.0708 119.638 27.0229C119.638 27.9751 119.184 28.854 118.275 29.6597C117.382 30.4653 116.415 30.8682 115.375 30.8682C114.35 30.8682 113.28 30.2676 112.167 29.0664L102.895 19.0029V27.0449C102.895 29.5938 101.444 30.8682 98.5439 30.8682C95.6436 30.8682 94.1934 29.5938 94.1934 27.0449V5.02832C94.1934 2.47949 95.6436 1.20508 98.5439 1.20508C101.444 1.20508 102.895 2.47949 102.895 5.02832V12.9824L112.167 2.96289C113.295 1.74707 114.364 1.13916 115.375 1.13916C116.4 1.13916 117.36 1.54199 118.253 2.34766C119.162 3.13867 119.616 4.01758 119.616 4.98438C119.616 5.95117 119.11 6.99121 118.1 8.10449L110.937 15.9707ZM136.583 18.6074L134.693 13.4658L132.804 18.6074H136.583ZM130.211 25.6387L129.376 27.8799C128.629 29.8721 127.398 30.8682 125.685 30.8682C123.985 30.8682 122.762 30.3481 122.015 29.3081C121.283 28.2534 120.917 27.3086 120.917 26.4736C120.917 25.6387 121.1 24.8184 121.466 24.0127L130.519 4.19336C131.427 2.20117 132.811 1.20508 134.671 1.20508C136.532 1.20508 137.916 2.20117 138.824 4.19336L147.921 24.0127C148.302 24.833 148.492 25.6606 148.492 26.4956C148.492 27.3306 148.133 28.2681 147.416 29.3081C146.698 30.3481 145.467 30.8682 143.724 30.8682C141.996 30.8682 140.758 29.8721 140.011 27.8799L139.176 25.6387H130.211ZM164.998 30.8682H154.451C151.551 30.8682 150.101 29.5938 150.101 27.0449V5.02832C150.101 2.47949 151.551 1.20508 154.451 1.20508H164.998C167.254 1.20508 168.382 2.36963 168.382 4.69873C168.382 7.02783 167.254 8.19238 164.998 8.19238H158.802V12.4551H164.119C166.375 12.4551 167.503 13.627 167.503 15.9707C167.503 18.3145 166.375 19.4863 164.119 19.4863H158.802V23.8809H164.998C167.254 23.8809 168.382 25.0454 168.382 27.3745C168.382 29.7036 167.254 30.8682 164.998 30.8682ZM183.811 30.9561C182.068 30.9561 180.706 29.916 179.724 27.8359L170.627 8.0166C170.188 7.06445 169.968 6.2002 169.968 5.42383C169.968 4.63281 170.254 3.70996 170.825 2.65527C171.396 1.60059 172.583 1.08057 174.385 1.09521C176.201 1.10986 177.571 2.12793 178.494 4.14941L183.811 15.751L189.084 4.14941C190.007 2.12793 191.37 1.10986 193.171 1.09521C194.988 1.08057 196.182 1.60059 196.753 2.65527C197.324 3.70996 197.61 4.63281 197.61 5.42383C197.61 6.2002 197.39 7.06445 196.951 8.0166L187.854 27.8359C186.902 29.916 185.554 30.9561 183.811 30.9561ZM214.094 30.8682H203.547C200.646 30.8682 199.196 29.5938 199.196 27.0449V5.02832C199.196 2.47949 200.646 1.20508 203.547 1.20508H214.094C216.35 1.20508 217.478 2.36963 217.478 4.69873C217.478 7.02783 216.35 8.19238 214.094 8.19238H207.897V12.4551H213.215C215.471 12.4551 216.599 13.627 216.599 15.9707C216.599 18.3145 215.471 19.4863 213.215 19.4863H207.897V23.8809H214.094C216.35 23.8809 217.478 25.0454 217.478 27.3745C217.478 29.7036 216.35 30.8682 214.094 30.8682ZM237.323 14.4326V5.02832C237.323 2.47949 238.773 1.20508 241.674 1.20508C244.574 1.20508 246.024 2.47949 246.024 5.02832V27.0449C246.024 29.5938 244.574 30.8682 241.674 30.8682C240.062 30.8682 238.788 30.3115 237.851 29.1982L228.095 17.5967V27.0449C228.095 29.5938 226.645 30.8682 223.744 30.8682C220.844 30.8682 219.394 29.5938 219.394 27.0449V5.02832C219.394 2.49414 220.844 1.21973 223.744 1.20508C225.604 1.19043 226.938 1.79102 227.743 3.00684L237.323 14.4326ZM264.222 8.19238V27.0889C264.222 29.6377 262.772 30.9121 259.872 30.9121C256.971 30.9121 255.521 29.6377 255.521 27.0889V8.19238H251.126C248.783 8.19238 247.611 7.02783 247.611 4.69873C247.611 2.36963 248.783 1.20508 251.126 1.20508H268.661C271.004 1.20508 272.176 2.36963 272.176 4.69873C272.176 7.02783 271.004 8.19238 268.661 8.19238H264.222Z"/>
</mask>
<path d="M32.3228 25.5508C32.3228 26.6055 31.4805 27.7993 29.7959 29.1323C28.1113 30.4653 24.9912 31.1318 20.4355 31.1318C15.8799 31.1318 12.1299 29.7183 9.18555 26.8911C6.24121 24.0493 4.76904 20.3359 4.76904 15.751C4.76904 11.166 6.23389 7.45264 9.16357 4.61084C12.0933 1.75439 15.8652 0.326172 20.4795 0.326172C25.1084 0.326172 28.2358 0.992676 29.8618 2.32568C31.5024 3.65869 32.3228 4.85986 32.3228 5.9292C32.3228 6.98389 31.9712 7.92871 31.2681 8.76367C30.5649 9.58398 29.7886 9.99414 28.939 9.99414C28.104 9.99414 26.771 9.67188 24.9399 9.02734C23.1235 8.38281 21.7612 8.06055 20.853 8.06055C15.9312 8.06055 13.4702 10.6167 13.4702 15.729C13.4702 20.8413 15.9312 23.3975 20.853 23.3975C21.7612 23.3975 23.1235 23.0752 24.9399 22.4307C26.771 21.7861 28.104 21.4639 28.939 21.4639C29.7886 21.4639 30.5649 21.8813 31.2681 22.7163C31.9712 23.5366 32.3228 24.4814 32.3228 25.5508ZM49.7734 30.8682H38.6113C35.7109 30.8682 34.2607 29.5938 34.2607 27.0449V5.02832C34.2607 2.47949 35.7109 1.20508 38.6113 1.20508C41.5117 1.20508 42.9619 2.47949 42.9619 5.02832V23.8809H49.7734C51.5898 23.8809 52.498 25.0454 52.498 27.3745C52.498 29.7036 51.5898 30.8682 49.7734 30.8682ZM63.1152 27.0449C63.1152 29.5938 61.665 30.8682 58.7646 30.8682C55.8643 30.8682 54.4141 29.5938 54.4141 27.0449V5.02832C54.4141 2.47949 55.8643 1.20508 58.7646 1.20508C61.665 1.20508 63.1152 2.47949 63.1152 5.02832V27.0449ZM92.2554 25.5508C92.2554 26.6055 91.4131 27.7993 89.7285 29.1323C88.0439 30.4653 84.9238 31.1318 80.3682 31.1318C75.8125 31.1318 72.0625 29.7183 69.1182 26.8911C66.1738 24.0493 64.7017 20.3359 64.7017 15.751C64.7017 11.166 66.1665 7.45264 69.0962 4.61084C72.0259 1.75439 75.7979 0.326172 80.4121 0.326172C85.041 0.326172 88.1685 0.992676 89.7944 2.32568C91.4351 3.65869 92.2554 4.85986 92.2554 5.9292C92.2554 6.98389 91.9038 7.92871 91.2007 8.76367C90.4976 9.58398 89.7212 9.99414 88.8716 9.99414C88.0366 9.99414 86.7036 9.67188 84.8726 9.02734C83.0562 8.38281 81.6938 8.06055 80.7856 8.06055C75.8638 8.06055 73.4028 10.6167 73.4028 15.729C73.4028 20.8413 75.8638 23.3975 80.7856 23.3975C81.6938 23.3975 83.0562 23.0752 84.8726 22.4307C86.7036 21.7861 88.0366 21.4639 88.8716 21.4639C89.7212 21.4639 90.4976 21.8813 91.2007 22.7163C91.9038 23.5366 92.2554 24.4814 92.2554 25.5508ZM110.937 15.9707L118.1 23.8809C119.125 25.0234 119.638 26.0708 119.638 27.0229C119.638 27.9751 119.184 28.854 118.275 29.6597C117.382 30.4653 116.415 30.8682 115.375 30.8682C114.35 30.8682 113.28 30.2676 112.167 29.0664L102.895 19.0029V27.0449C102.895 29.5938 101.444 30.8682 98.5439 30.8682C95.6436 30.8682 94.1934 29.5938 94.1934 27.0449V5.02832C94.1934 2.47949 95.6436 1.20508 98.5439 1.20508C101.444 1.20508 102.895 2.47949 102.895 5.02832V12.9824L112.167 2.96289C113.295 1.74707 114.364 1.13916 115.375 1.13916C116.4 1.13916 117.36 1.54199 118.253 2.34766C119.162 3.13867 119.616 4.01758 119.616 4.98438C119.616 5.95117 119.11 6.99121 118.1 8.10449L110.937 15.9707ZM136.583 18.6074L134.693 13.4658L132.804 18.6074H136.583ZM130.211 25.6387L129.376 27.8799C128.629 29.8721 127.398 30.8682 125.685 30.8682C123.985 30.8682 122.762 30.3481 122.015 29.3081C121.283 28.2534 120.917 27.3086 120.917 26.4736C120.917 25.6387 121.1 24.8184 121.466 24.0127L130.519 4.19336C131.427 2.20117 132.811 1.20508 134.671 1.20508C136.532 1.20508 137.916 2.20117 138.824 4.19336L147.921 24.0127C148.302 24.833 148.492 25.6606 148.492 26.4956C148.492 27.3306 148.133 28.2681 147.416 29.3081C146.698 30.3481 145.467 30.8682 143.724 30.8682C141.996 30.8682 140.758 29.8721 140.011 27.8799L139.176 25.6387H130.211ZM164.998 30.8682H154.451C151.551 30.8682 150.101 29.5938 150.101 27.0449V5.02832C150.101 2.47949 151.551 1.20508 154.451 1.20508H164.998C167.254 1.20508 168.382 2.36963 168.382 4.69873C168.382 7.02783 167.254 8.19238 164.998 8.19238H158.802V12.4551H164.119C166.375 12.4551 167.503 13.627 167.503 15.9707C167.503 18.3145 166.375 19.4863 164.119 19.4863H158.802V23.8809H164.998C167.254 23.8809 168.382 25.0454 168.382 27.3745C168.382 29.7036 167.254 30.8682 164.998 30.8682ZM183.811 30.9561C182.068 30.9561 180.706 29.916 179.724 27.8359L170.627 8.0166C170.188 7.06445 169.968 6.2002 169.968 5.42383C169.968 4.63281 170.254 3.70996 170.825 2.65527C171.396 1.60059 172.583 1.08057 174.385 1.09521C176.201 1.10986 177.571 2.12793 178.494 4.14941L183.811 15.751L189.084 4.14941C190.007 2.12793 191.37 1.10986 193.171 1.09521C194.988 1.08057 196.182 1.60059 196.753 2.65527C197.324 3.70996 197.61 4.63281 197.61 5.42383C197.61 6.2002 197.39 7.06445 196.951 8.0166L187.854 27.8359C186.902 29.916 185.554 30.9561 183.811 30.9561ZM214.094 30.8682H203.547C200.646 30.8682 199.196 29.5938 199.196 27.0449V5.02832C199.196 2.47949 200.646 1.20508 203.547 1.20508H214.094C216.35 1.20508 217.478 2.36963 217.478 4.69873C217.478 7.02783 216.35 8.19238 214.094 8.19238H207.897V12.4551H213.215C215.471 12.4551 216.599 13.627 216.599 15.9707C216.599 18.3145 215.471 19.4863 213.215 19.4863H207.897V23.8809H214.094C216.35 23.8809 217.478 25.0454 217.478 27.3745C217.478 29.7036 216.35 30.8682 214.094 30.8682ZM237.323 14.4326V5.02832C237.323 2.47949 238.773 1.20508 241.674 1.20508C244.574 1.20508 246.024 2.47949 246.024 5.02832V27.0449C246.024 29.5938 244.574 30.8682 241.674 30.8682C240.062 30.8682 238.788 30.3115 237.851 29.1982L228.095 17.5967V27.0449C228.095 29.5938 226.645 30.8682 223.744 30.8682C220.844 30.8682 219.394 29.5938 219.394 27.0449V5.02832C219.394 2.49414 220.844 1.21973 223.744 1.20508C225.604 1.19043 226.938 1.79102 227.743 3.00684L237.323 14.4326ZM264.222 8.19238V27.0889C264.222 29.6377 262.772 30.9121 259.872 30.9121C256.971 30.9121 255.521 29.6377 255.521 27.0889V8.19238H251.126C248.783 8.19238 247.611 7.02783 247.611 4.69873C247.611 2.36963 248.783 1.20508 251.126 1.20508H268.661C271.004 1.20508 272.176 2.36963 272.176 4.69873C272.176 7.02783 271.004 8.19238 268.661 8.19238H264.222Z" fill="#FEAD40"/>
<path d="M9.18555 26.8911L8.49108 27.6106L8.49294 27.6124L9.18555 26.8911ZM9.16357 4.61084L9.85983 5.32863L9.86167 5.32684L9.16357 4.61084ZM29.8618 2.32568L29.2278 3.09903L29.2312 3.1018L29.8618 2.32568ZM31.2681 8.76367L32.0274 9.41449L32.033 9.40781L31.2681 8.76367ZM24.9399 9.02734L24.6055 9.96977L24.6079 9.97061L24.9399 9.02734ZM24.9399 22.4307L24.6079 21.4874L24.6055 21.4882L24.9399 22.4307ZM31.2681 22.7163L30.5031 23.3605L30.5088 23.3671L31.2681 22.7163ZM31.3228 25.5508C31.3228 25.8059 31.2207 26.1692 30.8739 26.6607C30.5273 27.1519 29.9743 27.7159 29.1754 28.3481L30.4164 29.9165C31.302 29.2157 32.0124 28.5163 32.5081 27.8137C33.0037 27.1113 33.3228 26.3504 33.3228 25.5508H31.3228ZM29.1754 28.3481C27.7801 29.4522 24.9722 30.1318 20.4355 30.1318V32.1318C25.0102 32.1318 28.4426 31.4784 30.4164 29.9165L29.1754 28.3481ZM20.4355 30.1318C16.1055 30.1318 12.614 28.7968 9.87815 26.1698L8.49294 27.6124C11.6458 30.6398 15.6543 32.1318 20.4355 32.1318V30.1318ZM9.88001 26.1716C7.15535 23.5418 5.76904 20.1005 5.76904 15.751H3.76904C3.76904 20.5714 5.32707 24.5568 8.49108 27.6106L9.88001 26.1716ZM5.76904 15.751C5.76904 11.3999 7.1491 7.95804 9.85983 5.32863L8.46732 3.89305C5.31867 6.94723 3.76904 10.9321 3.76904 15.751H5.76904ZM9.86167 5.32684C12.5802 2.67627 16.0899 1.32617 20.4795 1.32617V-0.673828C15.6406 -0.673828 11.6063 0.832515 8.46547 3.89484L9.86167 5.32684ZM20.4795 1.32617C22.7521 1.32617 24.6161 1.49033 26.0883 1.80409C27.5701 2.11988 28.586 2.57286 29.2278 3.09902L30.4958 1.55235C29.5116 0.745498 28.1508 0.198725 26.5052 -0.151987C24.85 -0.504732 22.8358 -0.673828 20.4795 -0.673828V1.32617ZM29.2312 3.1018C30.8438 4.41205 31.3228 5.3517 31.3228 5.9292H33.3228C33.3228 4.36802 32.161 2.90534 30.4924 1.54957L29.2312 3.1018ZM31.3228 5.9292C31.3228 6.73935 31.0602 7.458 30.5032 8.11954L32.033 9.40781C32.8821 8.39942 33.3228 7.22842 33.3228 5.9292H31.3228ZM30.5088 8.11288C29.9401 8.7764 29.4209 8.99414 28.939 8.99414V10.9941C30.1563 10.9941 31.1898 10.3916 32.0273 9.41446L30.5088 8.11288ZM28.939 8.99414C28.2907 8.99414 27.1003 8.72764 25.272 8.08408L24.6079 9.97061C26.4417 10.6161 27.9173 10.9941 28.939 10.9941V8.99414ZM25.2744 8.08492C23.4435 7.43524 21.9437 7.06055 20.853 7.06055V9.06055C21.5787 9.06055 22.8036 9.33038 24.6055 9.96977L25.2744 8.08492ZM20.853 7.06055C18.2281 7.06055 16.0781 7.7442 14.5955 9.2841C13.1198 10.8169 12.4702 13.028 12.4702 15.729H14.4702C14.4702 13.3177 15.0511 11.6946 16.0363 10.6712C17.0147 9.65497 18.5561 9.06055 20.853 9.06055V7.06055ZM12.4702 15.729C12.4702 18.43 13.1198 20.6411 14.5955 22.1739C16.0781 23.7138 18.2281 24.3975 20.853 24.3975V22.3975C18.5561 22.3975 17.0147 21.803 16.0363 20.7868C15.0511 19.7635 14.4702 18.1403 14.4702 15.729H12.4702ZM20.853 24.3975C21.9437 24.3975 23.4435 24.0228 25.2744 23.3731L24.6055 21.4882C22.8036 22.1276 21.5787 22.3975 20.853 22.3975V24.3975ZM25.272 23.3739C27.1003 22.7304 28.2907 22.4639 28.939 22.4639V20.4639C27.9173 20.4639 26.4417 20.8419 24.6079 21.4874L25.272 23.3739ZM28.939 22.4639C29.4138 22.4639 29.9318 22.6819 30.5032 23.3604L32.033 22.0722C31.1981 21.0808 30.1634 20.4639 28.939 20.4639V22.4639ZM30.5088 23.3671C31.0584 24.0082 31.3228 24.7229 31.3228 25.5508H33.3228C33.3228 24.24 32.884 23.065 32.0273 22.0655L30.5088 23.3671ZM42.9619 23.8809H41.9619V24.8809H42.9619V23.8809ZM49.7734 29.8682H38.6113V31.8682H49.7734V29.8682ZM38.6113 29.8682C37.2858 29.8682 36.4784 29.5742 36.0085 29.1612C35.5632 28.7699 35.2607 28.1292 35.2607 27.0449H33.2607C33.2607 28.5094 33.6833 29.7804 34.6883 30.6635C35.6685 31.525 37.0365 31.8682 38.6113 31.8682V29.8682ZM35.2607 27.0449V5.02832H33.2607V27.0449H35.2607ZM35.2607 5.02832C35.2607 3.94402 35.5632 3.30334 36.0085 2.91205C36.4784 2.49909 37.2858 2.20508 38.6113 2.20508V0.205078C37.0365 0.205078 35.6685 0.548273 34.6883 1.40972C33.6833 2.29285 33.2607 3.56379 33.2607 5.02832H35.2607ZM38.6113 2.20508C39.9369 2.20508 40.7442 2.49909 41.2142 2.91205C41.6594 3.30334 41.9619 3.94402 41.9619 5.02832H43.9619C43.9619 3.56379 43.5393 2.29285 42.5344 1.40972C41.5541 0.548273 40.1862 0.205078 38.6113 0.205078V2.20508ZM41.9619 5.02832V23.8809H43.9619V5.02832H41.9619ZM42.9619 24.8809H49.7734V22.8809H42.9619V24.8809ZM49.7734 24.8809C50.452 24.8809 50.8073 25.0858 51.0283 25.3692C51.2863 25.7 51.498 26.3124 51.498 27.3745H53.498C53.498 26.1075 53.2557 24.9731 52.6054 24.1393C51.9183 23.2582 50.9113 22.8809 49.7734 22.8809V24.8809ZM51.498 27.3745C51.498 28.4366 51.2863 29.049 51.0283 29.3798C50.8073 29.6633 50.452 29.8682 49.7734 29.8682V31.8682C50.9113 31.8682 51.9183 31.4908 52.6054 30.6097C53.2557 29.7759 53.498 28.6415 53.498 27.3745H51.498ZM62.1152 27.0449C62.1152 28.1292 61.8127 28.7699 61.3675 29.1612C60.8975 29.5742 60.0902 29.8682 58.7646 29.8682V31.8682C60.3395 31.8682 61.7074 31.525 62.6877 30.6635C63.6926 29.7804 64.1152 28.5094 64.1152 27.0449H62.1152ZM58.7646 29.8682C57.4391 29.8682 56.6317 29.5742 56.1618 29.1612C55.7166 28.7699 55.4141 28.1292 55.4141 27.0449H53.4141C53.4141 28.5094 53.8367 29.7804 54.8416 30.6635C55.8219 31.525 57.1898 31.8682 58.7646 31.8682V29.8682ZM55.4141 27.0449V5.02832H53.4141V27.0449H55.4141ZM55.4141 5.02832C55.4141 3.94402 55.7166 3.30334 56.1618 2.91205C56.6317 2.49909 57.4391 2.20508 58.7646 2.20508V0.205078C57.1898 0.205078 55.8219 0.548273 54.8416 1.40972C53.8367 2.29285 53.4141 3.56379 53.4141 5.02832H55.4141ZM58.7646 2.20508C60.0902 2.20508 60.8975 2.49909 61.3675 2.91205C61.8127 3.30334 62.1152 3.94402 62.1152 5.02832H64.1152C64.1152 3.56379 63.6926 2.29285 62.6877 1.40972C61.7074 0.548273 60.3395 0.205078 58.7646 0.205078V2.20508ZM62.1152 5.02832V27.0449H64.1152V5.02832H62.1152ZM69.1182 26.8911L68.4237 27.6106L68.4256 27.6124L69.1182 26.8911ZM69.0962 4.61084L69.7924 5.32863L69.7943 5.32684L69.0962 4.61084ZM89.7944 2.32568L89.1604 3.09903L89.1638 3.1018L89.7944 2.32568ZM91.2007 8.76367L91.96 9.41449L91.9656 9.40781L91.2007 8.76367ZM84.8726 9.02734L84.5381 9.96977L84.5405 9.97061L84.8726 9.02734ZM84.8726 22.4307L84.5405 21.4874L84.5381 21.4882L84.8726 22.4307ZM91.2007 22.7163L90.4357 23.3605L90.4414 23.3671L91.2007 22.7163ZM91.2554 25.5508C91.2554 25.8059 91.1533 26.1692 90.8065 26.6607C90.46 27.1519 89.9069 27.7159 89.108 28.3481L90.349 29.9165C91.2347 29.2157 91.9451 28.5163 92.4408 27.8137C92.9363 27.1113 93.2554 26.3504 93.2554 25.5508H91.2554ZM89.108 28.3481C87.7127 29.4522 84.9048 30.1318 80.3682 30.1318V32.1318C84.9428 32.1318 88.3752 31.4784 90.349 29.9165L89.108 28.3481ZM80.3682 30.1318C76.0381 30.1318 72.5466 28.7968 69.8108 26.1698L68.4256 27.6124C71.5784 30.6398 75.5869 32.1318 80.3682 32.1318V30.1318ZM69.8126 26.1716C67.088 23.5418 65.7017 20.1005 65.7017 15.751H63.7017C63.7017 20.5714 65.2597 24.5568 68.4237 27.6106L69.8126 26.1716ZM65.7017 15.751C65.7017 11.3999 67.0817 7.95804 69.7924 5.32863L68.3999 3.89305C65.2513 6.94723 63.7017 10.9321 63.7017 15.751H65.7017ZM69.7943 5.32684C72.5128 2.67627 76.0225 1.32617 80.4121 1.32617V-0.673828C75.5732 -0.673828 71.5389 0.832515 68.3981 3.89484L69.7943 5.32684ZM80.4121 1.32617C82.6847 1.32617 84.5487 1.49033 86.0209 1.80409C87.5027 2.11988 88.5186 2.57286 89.1604 3.09902L90.4284 1.55235C89.4443 0.745498 88.0835 0.198725 86.4378 -0.151987C84.7826 -0.504732 82.7684 -0.673828 80.4121 -0.673828V1.32617ZM89.1638 3.1018C90.7765 4.41205 91.2554 5.3517 91.2554 5.9292H93.2554C93.2554 4.36802 92.0937 2.90534 90.425 1.54957L89.1638 3.1018ZM91.2554 5.9292C91.2554 6.73935 90.9929 7.458 90.4358 8.11954L91.9656 9.40781C92.8148 8.39942 93.2554 7.22842 93.2554 5.9292H91.2554ZM90.4414 8.11288C89.8727 8.7764 89.3535 8.99414 88.8716 8.99414V10.9941C90.0889 10.9941 91.1224 10.3916 91.9599 9.41446L90.4414 8.11288ZM88.8716 8.99414C88.2233 8.99414 87.0329 8.72764 85.2046 8.08408L84.5405 9.97061C86.3743 10.6161 87.8499 10.9941 88.8716 10.9941V8.99414ZM85.207 8.08492C83.3761 7.43524 81.8763 7.06055 80.7856 7.06055V9.06055C81.5114 9.06055 82.7362 9.33038 84.5381 9.96977L85.207 8.08492ZM80.7856 7.06055C78.1607 7.06055 76.0107 7.7442 74.5281 9.2841C73.0524 10.8169 72.4028 13.028 72.4028 15.729H74.4028C74.4028 13.3177 74.9837 11.6946 75.9689 10.6712C76.9473 9.65497 78.4887 9.06055 80.7856 9.06055V7.06055ZM72.4028 15.729C72.4028 18.43 73.0524 20.6411 74.5281 22.1739C76.0107 23.7138 78.1607 24.3975 80.7856 24.3975V22.3975C78.4887 22.3975 76.9473 21.803 75.9689 20.7868C74.9837 19.7635 74.4028 18.1403 74.4028 15.729H72.4028ZM80.7856 24.3975C81.8763 24.3975 83.3761 24.0228 85.207 23.3731L84.5381 21.4882C82.7362 22.1276 81.5114 22.3975 80.7856 22.3975V24.3975ZM85.2046 23.3739C87.0329 22.7304 88.2233 22.4639 88.8716 22.4639V20.4639C87.8499 20.4639 86.3743 20.8419 84.5405 21.4874L85.2046 23.3739ZM88.8716 22.4639C89.3464 22.4639 89.8644 22.6819 90.4358 23.3604L91.9656 22.0722C91.1307 21.0808 90.096 20.4639 88.8716 20.4639V22.4639ZM90.4414 23.3671C90.991 24.0082 91.2554 24.7229 91.2554 25.5508H93.2554C93.2554 24.24 92.8167 23.065 91.9599 22.0655L90.4414 23.3671ZM110.937 15.9707L110.197 15.2974L109.586 15.9688L110.195 16.6419L110.937 15.9707ZM118.1 23.8809L118.844 23.2129L118.841 23.2096L118.1 23.8809ZM118.275 29.6597L117.612 28.9116L117.606 28.917L118.275 29.6597ZM112.167 29.0664L111.432 29.744L111.434 29.7462L112.167 29.0664ZM102.895 19.0029L103.63 18.3253L101.895 16.4419V19.0029H102.895ZM102.895 12.9824H101.895V15.5353L103.628 13.6616L102.895 12.9824ZM112.167 2.96289L111.434 2.28278L111.433 2.28368L112.167 2.96289ZM118.253 2.34766L117.584 3.09034L117.59 3.0961L117.597 3.10174L118.253 2.34766ZM118.1 8.10449L118.839 8.77778L118.84 8.77668L118.1 8.10449ZM110.195 16.6419L117.358 24.5521L118.841 23.2096L111.678 15.2995L110.195 16.6419ZM117.355 24.5488C118.311 25.614 118.638 26.4301 118.638 27.0229H120.638C120.638 25.7115 119.939 24.4329 118.844 23.2129L117.355 24.5488ZM118.638 27.0229C118.638 27.6145 118.369 28.2399 117.612 28.9116L118.939 30.4077C119.998 29.4681 120.638 28.3357 120.638 27.0229H118.638ZM117.606 28.917C116.865 29.5847 116.129 29.8682 115.375 29.8682V31.8682C116.701 31.8682 117.898 31.346 118.945 30.4024L117.606 28.917ZM115.375 29.8682C114.757 29.8682 113.935 29.5024 112.9 28.3866L111.434 29.7462C112.626 31.0327 113.943 31.8682 115.375 31.8682V29.8682ZM112.902 28.3888L103.63 18.3253L102.159 19.6805L111.432 29.744L112.902 28.3888ZM101.895 19.0029V27.0449H103.895V19.0029H101.895ZM101.895 27.0449C101.895 28.1292 101.592 28.7699 101.147 29.1612C100.677 29.5742 99.8695 29.8682 98.5439 29.8682V31.8682C100.119 31.8682 101.487 31.525 102.467 30.6635C103.472 29.7804 103.895 28.5094 103.895 27.0449H101.895ZM98.5439 29.8682C97.2184 29.8682 96.411 29.5742 95.9411 29.1612C95.4959 28.7699 95.1934 28.1292 95.1934 27.0449H93.1934C93.1934 28.5094 93.616 29.7804 94.6209 30.6635C95.6012 31.525 96.9691 31.8682 98.5439 31.8682V29.8682ZM95.1934 27.0449V5.02832H93.1934V27.0449H95.1934ZM95.1934 5.02832C95.1934 3.94402 95.4959 3.30334 95.9411 2.91205C96.411 2.49909 97.2184 2.20508 98.5439 2.20508V0.205078C96.9691 0.205078 95.6012 0.548273 94.6209 1.40972C93.616 2.29285 93.1934 3.56379 93.1934 5.02832H95.1934ZM98.5439 2.20508C99.8695 2.20508 100.677 2.49909 101.147 2.91205C101.592 3.30334 101.895 3.94402 101.895 5.02832H103.895C103.895 3.56379 103.472 2.29285 102.467 1.40972C101.487 0.548273 100.119 0.205078 98.5439 0.205078V2.20508ZM101.895 5.02832V12.9824H103.895V5.02832H101.895ZM103.628 13.6616L112.901 3.64211L111.433 2.28368L102.161 12.3032L103.628 13.6616ZM112.9 3.643C113.956 2.50527 114.777 2.13916 115.375 2.13916V0.13916C113.951 0.13916 112.634 0.988867 111.434 2.28278L112.9 3.643ZM115.375 2.13916C116.111 2.13916 116.84 2.41985 117.584 3.09034L118.923 1.60497C117.88 0.664135 116.69 0.13916 115.375 0.13916V2.13916ZM117.597 3.10174C118.345 3.75332 118.616 4.37563 118.616 4.98438H120.616C120.616 3.65953 119.979 2.52403 118.91 1.59357L117.597 3.10174ZM118.616 4.98438C118.616 5.59605 118.292 6.40493 117.359 7.4323L118.84 8.77668C119.929 7.5775 120.616 6.30629 120.616 4.98438H118.616ZM117.36 7.4312L110.197 15.2974L111.676 16.644L118.839 8.77778L117.36 7.4312ZM136.583 18.6074V19.6074H138.016L137.522 18.2625L136.583 18.6074ZM134.693 13.4658L135.632 13.1209L134.693 10.5669L133.755 13.1209L134.693 13.4658ZM132.804 18.6074L131.865 18.2625L131.371 19.6074H132.804V18.6074ZM130.211 25.6387V24.6387H129.516L129.274 25.2896L130.211 25.6387ZM129.376 27.8799L130.312 28.231L130.313 28.229L129.376 27.8799ZM122.015 29.3081L121.194 29.8785L121.198 29.885L121.203 29.8915L122.015 29.3081ZM121.466 24.0127L120.556 23.5972L120.555 23.5989L121.466 24.0127ZM130.519 4.19336L131.428 4.60883L131.428 4.60817L130.519 4.19336ZM138.824 4.19336L137.914 4.60817L137.915 4.6105L138.824 4.19336ZM147.921 24.0127L147.012 24.4298L147.014 24.4338L147.921 24.0127ZM140.011 27.8799L139.074 28.229L139.074 28.231L140.011 27.8799ZM139.176 25.6387L140.113 25.2896L139.87 24.6387H139.176V25.6387ZM137.522 18.2625L135.632 13.1209L133.755 13.8108L135.644 18.9524L137.522 18.2625ZM133.755 13.1209L131.865 18.2625L133.742 18.9524L135.632 13.8108L133.755 13.1209ZM132.804 19.6074H136.583V17.6074H132.804V19.6074ZM129.274 25.2896L128.439 27.5308L130.313 28.229L131.148 25.9878L129.274 25.2896ZM128.44 27.5288C128.108 28.4134 127.701 28.9901 127.264 29.3438C126.842 29.6855 126.333 29.8682 125.685 29.8682V31.8682C126.75 31.8682 127.714 31.5528 128.522 30.8983C129.315 30.256 129.897 29.3385 130.312 28.231L128.44 27.5288ZM125.685 29.8682C124.192 29.8682 123.328 29.4219 122.827 28.7247L121.203 29.8915C122.196 31.2744 123.779 31.8682 125.685 31.8682V29.8682ZM122.837 28.7377C122.162 27.7664 121.917 27.022 121.917 26.4736H119.917C119.917 27.5952 120.403 28.7404 121.194 29.8785L122.837 28.7377ZM121.917 26.4736C121.917 25.7899 122.065 25.1101 122.376 24.4265L120.555 23.5989C120.134 24.5266 119.917 25.4874 119.917 26.4736H121.917ZM122.375 24.4282L131.428 4.60883L129.609 3.77789L120.556 23.5972L122.375 24.4282ZM131.428 4.60817C131.83 3.72649 132.306 3.13528 132.822 2.76385C133.328 2.39944 133.931 2.20508 134.671 2.20508V0.205078C133.552 0.205078 132.532 0.508759 131.654 1.14045C130.786 1.76511 130.115 2.66805 129.609 3.77855L131.428 4.60817ZM134.671 2.20508C135.412 2.20508 136.014 2.39944 136.521 2.76385C137.037 3.13528 137.512 3.72649 137.914 4.60817L139.734 3.77855C139.228 2.66805 138.557 1.76511 137.689 1.14045C136.811 0.508759 135.791 0.205078 134.671 0.205078V2.20508ZM137.915 4.6105L147.012 24.4298L148.83 23.5956L139.733 3.77622L137.915 4.6105ZM147.014 24.4338C147.339 25.1333 147.492 25.8179 147.492 26.4956H149.492C149.492 25.5034 149.265 24.5327 148.828 23.5916L147.014 24.4338ZM147.492 26.4956C147.492 27.048 147.251 27.7866 146.592 28.7401L148.239 29.8761C149.016 28.7495 149.492 27.6131 149.492 26.4956H147.492ZM146.592 28.7401C146.127 29.4145 145.274 29.8682 143.724 29.8682V31.8682C145.66 31.8682 147.268 31.2818 148.239 29.8761L146.592 28.7401ZM143.724 29.8682C143.066 29.8682 142.552 29.6842 142.126 29.342C141.687 28.9882 141.278 28.4121 140.947 27.5288L139.074 28.231C139.49 29.3398 140.074 30.2579 140.872 30.9002C141.685 31.5541 142.653 31.8682 143.724 31.8682V29.8682ZM140.948 27.5308L140.113 25.2896L138.239 25.9878L139.074 28.229L140.948 27.5308ZM139.176 24.6387H130.211V26.6387H139.176V24.6387ZM158.802 8.19238V7.19238H157.802V8.19238H158.802ZM158.802 12.4551H157.802V13.4551H158.802V12.4551ZM158.802 19.4863V18.4863H157.802V19.4863H158.802ZM158.802 23.8809H157.802V24.8809H158.802V23.8809ZM164.998 29.8682H154.451V31.8682H164.998V29.8682ZM154.451 29.8682C153.126 29.8682 152.318 29.5742 151.848 29.1612C151.403 28.7699 151.101 28.1292 151.101 27.0449H149.101C149.101 28.5094 149.523 29.7804 150.528 30.6635C151.508 31.525 152.876 31.8682 154.451 31.8682V29.8682ZM151.101 27.0449V5.02832H149.101V27.0449H151.101ZM151.101 5.02832C151.101 3.94402 151.403 3.30334 151.848 2.91205C152.318 2.49909 153.126 2.20508 154.451 2.20508V0.205078C152.876 0.205078 151.508 0.548273 150.528 1.40972C149.523 2.29285 149.101 3.56379 149.101 5.02832H151.101ZM154.451 2.20508H164.998V0.205078H154.451V2.20508ZM164.998 2.20508C165.964 2.20508 166.506 2.45249 166.818 2.77421C167.135 3.10187 167.382 3.68046 167.382 4.69873H169.382C169.382 3.3879 169.065 2.21966 168.254 1.38277C167.438 0.539941 166.288 0.205078 164.998 0.205078V2.20508ZM167.382 4.69873C167.382 5.717 167.135 6.29559 166.818 6.62325C166.506 6.94497 165.964 7.19238 164.998 7.19238V9.19238C166.288 9.19238 167.438 8.85752 168.254 8.01469C169.065 7.1778 169.382 6.00956 169.382 4.69873H167.382ZM164.998 7.19238H158.802V9.19238H164.998V7.19238ZM157.802 8.19238V12.4551H159.802V8.19238H157.802ZM158.802 13.4551H164.119V11.4551H158.802V13.4551ZM164.119 13.4551C165.083 13.4551 165.625 13.7034 165.936 14.0275C166.255 14.3586 166.503 14.9436 166.503 15.9707H168.503C168.503 14.654 168.187 13.4812 167.377 12.6405C166.561 11.7927 165.411 11.4551 164.119 11.4551V13.4551ZM166.503 15.9707C166.503 16.9978 166.255 17.5828 165.936 17.914C165.625 18.238 165.083 18.4863 164.119 18.4863V20.4863C165.411 20.4863 166.561 20.1487 167.377 19.3009C168.187 18.4602 168.503 17.2874 168.503 15.9707H166.503ZM164.119 18.4863H158.802V20.4863H164.119V18.4863ZM157.802 19.4863V23.8809H159.802V19.4863H157.802ZM158.802 24.8809H164.998V22.8809H158.802V24.8809ZM164.998 24.8809C165.964 24.8809 166.506 25.1283 166.818 25.45C167.135 25.7777 167.382 26.3562 167.382 27.3745H169.382C169.382 26.0637 169.065 24.8954 168.254 24.0586C167.438 23.2157 166.288 22.8809 164.998 22.8809V24.8809ZM167.382 27.3745C167.382 28.3928 167.135 28.9714 166.818 29.299C166.506 29.6208 165.964 29.8682 164.998 29.8682V31.8682C166.288 31.8682 167.438 31.5333 168.254 30.6905C169.065 29.8536 169.382 28.6853 169.382 27.3745H167.382ZM179.724 27.8359L178.815 28.2531L178.82 28.2627L179.724 27.8359ZM170.627 8.0166L171.536 7.59946L171.535 7.59754L170.627 8.0166ZM174.385 1.09521L174.377 2.09518L174.377 2.09518L174.385 1.09521ZM178.494 4.14941L177.584 4.56471L177.585 4.56607L178.494 4.14941ZM183.811 15.751L182.902 16.1676L183.815 18.1593L184.721 16.1648L183.811 15.751ZM189.084 4.14941L188.175 3.73412L188.174 3.73561L189.084 4.14941ZM193.171 1.09521L193.163 0.0952473L193.163 0.0952482L193.171 1.09521ZM196.951 8.0166L196.043 7.59754L196.042 7.59946L196.951 8.0166ZM187.854 27.8359L186.945 27.4188L186.945 27.4197L187.854 27.8359ZM183.811 29.9561C182.583 29.9561 181.507 29.272 180.629 27.4092L178.82 28.2627C179.904 30.56 181.553 31.9561 183.811 31.9561V29.9561ZM180.633 27.4188L171.536 7.59946L169.719 8.43374L178.815 28.2531L180.633 27.4188ZM171.535 7.59754C171.136 6.73315 170.968 6.01412 170.968 5.42383H168.968C168.968 6.38627 169.24 7.39575 169.719 8.43566L171.535 7.59754ZM170.968 5.42383C170.968 4.86325 171.175 4.10925 171.704 3.13156L169.946 2.17899C169.333 3.31067 168.968 4.40237 168.968 5.42383H170.968ZM171.704 3.13156C172.02 2.54959 172.74 2.08187 174.377 2.09518L174.393 0.0952482C172.426 0.0792589 170.773 0.651584 169.946 2.17899L171.704 3.13156ZM174.377 2.09518C175.087 2.10091 175.674 2.29823 176.178 2.67232C176.692 3.05485 177.172 3.66239 177.584 4.56471L179.403 3.73412C178.892 2.61495 178.226 1.70272 177.371 1.06718C176.504 0.423203 175.499 0.104165 174.393 0.0952473L174.377 2.09518ZM177.585 4.56607L182.902 16.1676L184.72 15.3343L179.403 3.73276L177.585 4.56607ZM184.721 16.1648L189.995 4.56322L188.174 3.73561L182.901 15.3372L184.721 16.1648ZM189.994 4.56471C190.407 3.66124 190.885 3.05324 191.397 2.67078C191.897 2.29709 192.478 2.10088 193.18 2.09518L193.163 0.0952482C192.063 0.104195 191.062 0.424342 190.2 1.06872C189.349 1.70433 188.685 2.6161 188.175 3.73412L189.994 4.56471ZM193.179 2.09518C194.835 2.08183 195.56 2.55204 195.874 3.13156L197.632 2.17899C196.804 0.649128 195.14 0.0793028 193.163 0.0952473L193.179 2.09518ZM195.874 3.13156C196.403 4.10925 196.61 4.86325 196.61 5.42383H198.61C198.61 4.40237 198.245 3.31067 197.632 2.17899L195.874 3.13156ZM196.61 5.42383C196.61 6.01412 196.442 6.73315 196.043 7.59754L197.859 8.43566C198.339 7.39575 198.61 6.38627 198.61 5.42383H196.61ZM196.042 7.59946L186.945 27.4188L188.763 28.2531L197.86 8.43374L196.042 7.59946ZM186.945 27.4197C186.095 29.277 185.035 29.9561 183.811 29.9561V31.9561C186.073 31.9561 187.709 30.555 188.763 28.2522L186.945 27.4197ZM207.897 8.19238V7.19238H206.897V8.19238H207.897ZM207.897 12.4551H206.897V13.4551H207.897V12.4551ZM207.897 19.4863V18.4863H206.897V19.4863H207.897ZM207.897 23.8809H206.897V24.8809H207.897V23.8809ZM214.094 29.8682H203.547V31.8682H214.094V29.8682ZM203.547 29.8682C202.221 29.8682 201.414 29.5742 200.944 29.1612C200.499 28.7699 200.196 28.1292 200.196 27.0449H198.196C198.196 28.5094 198.619 29.7804 199.624 30.6635C200.604 31.525 201.972 31.8682 203.547 31.8682V29.8682ZM200.196 27.0449V5.02832H198.196V27.0449H200.196ZM200.196 5.02832C200.196 3.94402 200.499 3.30334 200.944 2.91205C201.414 2.49909 202.221 2.20508 203.547 2.20508V0.205078C201.972 0.205078 200.604 0.548273 199.624 1.40972C198.619 2.29285 198.196 3.56379 198.196 5.02832H200.196ZM203.547 2.20508H214.094V0.205078H203.547V2.20508ZM214.094 2.20508C215.059 2.20508 215.602 2.45249 215.913 2.77421C216.231 3.10187 216.478 3.68046 216.478 4.69873H218.478C218.478 3.3879 218.16 2.21966 217.35 1.38277C216.534 0.539941 215.384 0.205078 214.094 0.205078V2.20508ZM216.478 4.69873C216.478 5.717 216.231 6.29559 215.913 6.62325C215.602 6.94497 215.059 7.19238 214.094 7.19238V9.19238C215.384 9.19238 216.534 8.85752 217.35 8.01469C218.16 7.1778 218.478 6.00956 218.478 4.69873H216.478ZM214.094 7.19238H207.897V9.19238H214.094V7.19238ZM206.897 8.19238V12.4551H208.897V8.19238H206.897ZM207.897 13.4551H213.215V11.4551H207.897V13.4551ZM213.215 13.4551C214.179 13.4551 214.72 13.7034 215.032 14.0275C215.351 14.3586 215.599 14.9436 215.599 15.9707H217.599C217.599 14.654 217.282 13.4812 216.473 12.6405C215.657 11.7927 214.507 11.4551 213.215 11.4551V13.4551ZM215.599 15.9707C215.599 16.9978 215.351 17.5828 215.032 17.914C214.72 18.238 214.179 18.4863 213.215 18.4863V20.4863C214.507 20.4863 215.657 20.1487 216.473 19.3009C217.282 18.4602 217.599 17.2874 217.599 15.9707H215.599ZM213.215 18.4863H207.897V20.4863H213.215V18.4863ZM206.897 19.4863V23.8809H208.897V19.4863H206.897ZM207.897 24.8809H214.094V22.8809H207.897V24.8809ZM214.094 24.8809C215.059 24.8809 215.602 25.1283 215.913 25.45C216.231 25.7777 216.478 26.3562 216.478 27.3745H218.478C218.478 26.0637 218.16 24.8954 217.35 24.0586C216.534 23.2157 215.384 22.8809 214.094 22.8809V24.8809ZM216.478 27.3745C216.478 28.3928 216.231 28.9714 215.913 29.299C215.602 29.6208 215.059 29.8682 214.094 29.8682V31.8682C215.384 31.8682 216.534 31.5333 217.35 30.6905C218.16 29.8536 218.478 28.6853 218.478 27.3745H216.478ZM237.323 14.4326L236.557 15.0751L238.323 17.1817V14.4326H237.323ZM237.851 29.1982L237.085 29.8418L237.086 29.8424L237.851 29.1982ZM228.095 17.5967L228.86 16.9531L227.095 14.8537V17.5967H228.095ZM223.744 1.20508L223.749 2.20507L223.752 2.20505L223.744 1.20508ZM227.743 3.00684L226.91 3.55922L226.941 3.60617L226.977 3.64934L227.743 3.00684ZM238.323 14.4326V5.02832H236.323V14.4326H238.323ZM238.323 5.02832C238.323 3.94402 238.626 3.30334 239.071 2.91205C239.541 2.49909 240.348 2.20508 241.674 2.20508V0.205078C240.099 0.205078 238.731 0.548273 237.751 1.40972C236.746 2.29285 236.323 3.56379 236.323 5.02832H238.323ZM241.674 2.20508C242.999 2.20508 243.807 2.49909 244.277 2.91205C244.722 3.30334 245.024 3.94402 245.024 5.02832H247.024C247.024 3.56379 246.602 2.29285 245.597 1.40972C244.617 0.548273 243.249 0.205078 241.674 0.205078V2.20508ZM245.024 5.02832V27.0449H247.024V5.02832H245.024ZM245.024 27.0449C245.024 28.1292 244.722 28.7699 244.277 29.1612C243.807 29.5742 242.999 29.8682 241.674 29.8682V31.8682C243.249 31.8682 244.617 31.525 245.597 30.6635C246.602 29.7804 247.024 28.5094 247.024 27.0449H245.024ZM241.674 29.8682C240.322 29.8682 239.341 29.4158 238.615 28.5541L237.086 29.8424C238.235 31.2072 239.803 31.8682 241.674 31.8682V29.8682ZM238.616 28.5546L228.86 16.9531L227.329 18.2403L237.085 29.8418L238.616 28.5546ZM227.095 17.5967V27.0449H229.095V17.5967H227.095ZM227.095 27.0449C227.095 28.1292 226.792 28.7699 226.347 29.1612C225.877 29.5742 225.07 29.8682 223.744 29.8682V31.8682C225.319 31.8682 226.687 31.525 227.667 30.6635C228.672 29.7804 229.095 28.5094 229.095 27.0449H227.095ZM223.744 29.8682C222.419 29.8682 221.611 29.5742 221.141 29.1612C220.696 28.7699 220.394 28.1292 220.394 27.0449H218.394C218.394 28.5094 218.816 29.7804 219.821 30.6635C220.801 31.525 222.169 31.8682 223.744 31.8682V29.8682ZM220.394 27.0449V5.02832H218.394V27.0449H220.394ZM220.394 5.02832C220.394 3.95346 220.695 3.31539 221.141 2.92304C221.613 2.50838 222.423 2.21176 223.749 2.20507L223.739 0.205091C222.165 0.213041 220.799 0.560952 219.821 1.42071C218.817 2.30278 218.394 3.569 218.394 5.02832H220.394ZM223.752 2.20505C225.38 2.19223 226.342 2.70305 226.91 3.55922L228.577 2.45446C227.533 0.878977 225.829 0.188628 223.736 0.20511L223.752 2.20505ZM226.977 3.64934L236.557 15.0751L238.09 13.7901L228.509 2.36434L226.977 3.64934ZM264.222 8.19238V7.19238H263.222V8.19238H264.222ZM255.521 8.19238H256.521V7.19238H255.521V8.19238ZM263.222 8.19238V27.0889H265.222V8.19238H263.222ZM263.222 27.0889C263.222 28.1732 262.92 28.8138 262.474 29.2051C262.004 29.6181 261.197 29.9121 259.872 29.9121V31.9121C261.446 31.9121 262.814 31.5689 263.795 30.7075C264.8 29.8243 265.222 28.5534 265.222 27.0889H263.222ZM259.872 29.9121C258.546 29.9121 257.739 29.6181 257.269 29.2051C256.824 28.8138 256.521 28.1732 256.521 27.0889H254.521C254.521 28.5534 254.944 29.8243 255.949 30.7075C256.929 31.5689 258.297 31.9121 259.872 31.9121V29.9121ZM256.521 27.0889V8.19238H254.521V27.0889H256.521ZM255.521 7.19238H251.126V9.19238H255.521V7.19238ZM251.126 7.19238C250.107 7.19238 249.527 6.93962 249.195 6.60965C248.864 6.28083 248.611 5.70755 248.611 4.69873H246.611C246.611 6.01902 246.944 7.19256 247.785 8.02829C248.625 8.86287 249.802 9.19238 251.126 9.19238V7.19238ZM248.611 4.69873C248.611 3.68991 248.864 3.11664 249.195 2.78781C249.527 2.45784 250.107 2.20508 251.126 2.20508V0.205078C249.802 0.205078 248.625 0.53459 247.785 1.36917C246.944 2.2049 246.611 3.37845 246.611 4.69873H248.611ZM251.126 2.20508H268.661V0.205078H251.126V2.20508ZM268.661 2.20508C269.68 2.20508 270.26 2.45784 270.592 2.78781C270.923 3.11664 271.176 3.68991 271.176 4.69873H273.176C273.176 3.37845 272.843 2.2049 272.002 1.36917C271.162 0.53459 269.985 0.205078 268.661 0.205078V2.20508ZM271.176 4.69873C271.176 5.70755 270.923 6.28083 270.592 6.60965C270.26 6.93962 269.68 7.19238 268.661 7.19238V9.19238C269.985 9.19238 271.162 8.86287 272.002 8.02829C272.843 7.19256 273.176 6.01902 273.176 4.69873H271.176ZM268.661 7.19238H264.222V9.19238H268.661V7.19238Z" fill="black" mask="url(#path-1-outside-1_103_3265)"/>
</g>
<defs>
<filter id="filter0_d_103_3265" x="0.769043" y="0.326172" width="275.407" height="38.8057" filterUnits="userSpaceOnUse" color-interpolation-filters="sRGB">
<feFlood flood-opacity="0" result="BackgroundImageFix"/>
<feColorMatrix in="SourceAlpha" type="matrix" values="0 0 0 0 0 0 0 0 0 0 0 0 0 0 0 0 0 0 127 0" result="hardAlpha"/>
<feOffset dy="4"/>
<feGaussianBlur stdDeviation="2"/>
<feComposite in2="hardAlpha" operator="out"/>
<feColorMatrix type="matrix" values="0 0 0 0 0 0 0 0 0 0 0 0 0 0 0 0 0 0 0.25 0"/>
<feBlend mode="normal" in2="BackgroundImageFix" result="effect1_dropShadow_103_3265"/>
<feBlend mode="normal" in="SourceGraphic" in2="effect1_dropShadow_103_3265" result="shape"/>
</filter>
</defs>
</svg>
