<svg width="75" height="49" viewBox="0 0 75 49" fill="none" xmlns="http://www.w3.org/2000/svg">
<g opacity="0.3">
<path d="M32.1118 14.5664H45.7179C46.227 14.5664 46.6406 14.0032 46.6406 13.3093C46.6406 12.6153 46.2276 12.0521 45.7179 12.0521H32.1118C31.6027 12.0521 31.1897 12.6153 31.1897 13.3093C31.1897 14.0032 31.602 14.5664 32.1118 14.5664Z" fill="black"/>
<path d="M45.3828 18.3379H26.8399C26.146 18.3379 25.5828 18.9011 25.5828 19.595C25.5828 20.289 26.146 20.8522 26.8399 20.8522H45.3828C46.0767 20.8522 46.6399 20.289 46.6399 19.595C46.6399 18.9011 46.0767 18.3379 45.3828 18.3379Z" fill="black"/>
<path d="M45.7172 24.5192H32.1118C31.6027 24.5192 31.1897 25.0824 31.1897 25.7763C31.1897 26.4703 31.6027 27.0335 32.1118 27.0335H45.7179C46.227 27.0335 46.6406 26.4703 46.6406 25.7763C46.6406 25.0824 46.227 24.5192 45.7172 24.5192Z" fill="black"/>
</g>
</svg>
