<svg width="75" height="49" viewBox="0 0 75 49" fill="none" xmlns="http://www.w3.org/2000/svg">
<g opacity="0.3">
<path fill-rule="evenodd" clip-rule="evenodd" d="M32.4814 15.7233C33.0024 16.6091 33.7061 17.3129 34.5923 17.8335C35.4783 18.3549 36.4478 18.6151 37.5 18.6151C38.553 18.6151 39.522 18.3549 40.4082 17.8335C41.2944 17.3129 41.9978 16.6091 42.5188 15.7233C43.0398 14.8367 43.3 13.8679 43.3 12.8148C43.3 11.7623 43.0398 10.7928 42.5188 9.9071C41.9978 9.02087 41.2944 8.31738 40.4082 7.79614C39.522 7.27551 38.553 7.01514 37.5 7.01514C36.4478 7.01514 35.4783 7.27551 34.5923 7.79614C33.7061 8.31738 33.0024 9.02087 32.4814 9.9071C31.9604 10.7928 31.7004 11.7623 31.7004 12.8148C31.7004 13.8679 31.9604 14.8367 32.4814 15.7233ZM25.731 18.0918C25.1887 17.7751 24.7588 17.3448 24.4421 16.803C24.1255 16.2604 23.967 15.6669 23.967 15.0225C23.967 14.3781 24.1255 13.7845 24.4421 13.2423C24.7588 12.7001 25.1887 12.2705 25.731 11.9535C26.2732 11.6372 26.8667 11.4784 27.5112 11.4784C28.1555 11.4784 28.749 11.6372 29.2913 11.9535C29.8335 12.2705 30.2634 12.7001 30.5801 13.2423C30.8967 13.7845 31.0554 14.3781 31.0554 15.0225C31.0554 15.6669 30.8967 16.2604 30.5801 16.803C30.2634 17.3448 29.8335 17.7751 29.2913 18.0918C28.749 18.4083 28.1555 18.5665 27.5112 18.5665C26.8667 18.5665 26.2732 18.4083 25.731 18.0918ZM23 26.3483C23 25.36 23.2444 24.4445 23.7334 23.6014C24.2217 22.7584 24.8877 22.0924 25.731 21.6034C26.574 21.1149 27.49 20.87 28.478 20.87H29.4443V22.8036H28.478C27.8335 22.8036 27.2397 22.9624 26.6978 23.2787C26.1553 23.5957 25.7253 24.0253 25.4089 24.5675C25.092 25.1097 24.9336 25.7032 24.9336 26.3477V27.3141H23V26.3483ZM29.1223 15.0222C29.1223 15.4625 28.9636 15.8413 28.647 16.1578C28.3303 16.4752 27.9517 16.6333 27.5112 16.6333C27.0708 16.6333 26.6921 16.4749 26.3755 16.1578C26.0588 15.8413 25.9004 15.4629 25.9004 15.0222C25.9004 14.5713 26.0588 14.1899 26.3755 13.8783C26.6921 13.5668 27.0708 13.4106 27.5112 13.4106C27.9517 13.4106 28.3303 13.5668 28.647 13.8783C28.9636 14.1899 29.1223 14.5713 29.1223 15.0222ZM28.8 26.3483C28.8 25.36 29.0444 24.4445 29.5332 23.6014C30.0217 22.7584 30.6877 22.0924 31.531 21.6034C32.374 21.1149 33.2896 20.87 34.2781 20.87H40.7222C41.7104 20.87 42.626 21.1149 43.469 21.6034C44.312 22.0924 44.978 22.7584 45.467 23.6014C45.9553 24.4445 46.2 25.36 46.2 26.3483V27.3147H44.2668V26.3483C44.2668 25.7039 44.1079 25.1104 43.7913 24.5681C43.4746 24.0259 43.0447 23.5963 42.5024 23.2793C41.9602 22.963 41.3669 22.8042 40.7224 22.8042H34.2783C33.634 22.8042 33.04 22.963 32.4978 23.2793C31.9556 23.5963 31.5256 24.0259 31.209 24.5681C30.8923 25.1104 30.7339 25.7039 30.7339 26.3483V27.3147H28.8V26.3483ZM39.4417 16.1663C40.0378 15.8226 40.5073 15.3527 40.8516 14.7565C41.1951 14.1603 41.3667 13.5132 41.3667 12.8148C41.3667 12.1167 41.1948 11.47 40.8516 10.8734C40.5073 10.2772 40.0378 9.8075 39.4417 9.46362C38.8455 9.11963 38.198 8.948 37.5 8.948C36.802 8.948 36.1548 9.12 35.5586 9.46362C34.9624 9.80725 34.4927 10.2772 34.1487 10.8734C33.8049 11.47 33.6335 12.1167 33.6335 12.8148C33.6335 13.5132 33.8052 14.1603 34.1487 14.7565C34.4924 15.3527 34.9624 15.8226 35.5586 16.1663C36.1548 16.5103 36.802 16.6815 37.5 16.6815C38.198 16.6815 38.8455 16.5099 39.4417 16.1663ZM44.4199 16.803C44.7366 17.3448 45.1665 17.7751 45.7087 18.0918C46.251 18.4083 46.8447 18.5665 47.4893 18.5665C48.1335 18.5665 48.7268 18.4083 49.2693 18.0918C49.8113 17.7751 50.2412 17.3448 50.5581 16.803C50.8745 16.2604 51.0332 15.6669 51.0332 15.0225C51.0332 14.3781 50.8745 13.7845 50.5581 13.2423C50.2412 12.7001 49.8113 12.2705 49.2693 11.9535C48.7268 11.6372 48.1335 11.4784 47.4893 11.4784C46.8447 11.4784 46.251 11.6372 45.7087 11.9535C45.1665 12.2705 44.7366 12.7001 44.4199 13.2423C44.1033 13.7845 43.9448 14.3781 43.9448 15.0225C43.9448 15.6669 44.1033 16.2604 44.4199 16.803ZM50.0671 26.3484C50.0671 25.704 49.9082 25.1105 49.5916 24.5682C49.2749 24.026 48.845 23.5964 48.3027 23.2794C47.7605 22.9631 47.167 22.8043 46.5227 22.8043H45.5559V20.8707H46.5225C47.5107 20.8707 48.4263 21.1156 49.2693 21.6041C50.1123 22.0931 50.7783 22.7592 51.2668 23.6022C51.7556 24.4452 52 25.36 52 26.3484V27.3148H50.0671V26.3484ZM49.0999 15.0222C49.0999 15.4625 48.9412 15.8413 48.6248 16.1578C48.3079 16.4752 47.9294 16.6333 47.489 16.6333C47.0483 16.6333 46.6697 16.4749 46.353 16.1578C46.0364 15.8413 45.8779 15.4629 45.8779 15.0222C45.8779 14.5713 46.0364 14.1899 46.353 13.8783C46.6697 13.5668 47.0483 13.4106 47.489 13.4106C47.9294 13.4106 48.3079 13.5668 48.6248 13.8783C48.9412 14.1899 49.0999 14.5713 49.0999 15.0222Z" fill="black"/>
</g>
</svg>
