<svg width="75" height="49" viewBox="0 0 75 49" fill="none" xmlns="http://www.w3.org/2000/svg">
<g opacity="0.3">
<mask id="mask0_241_603" style="mask-type:luminance" maskUnits="userSpaceOnUse" x="26" y="7" width="22" height="22">
<path fill-rule="evenodd" clip-rule="evenodd" d="M26 7H48V28.9267H26V7Z" fill="white"/>
</mask>
<g mask="url(#mask0_241_603)">
<path fill-rule="evenodd" clip-rule="evenodd" d="M35.7777 24.1111C31.7284 24.1111 28.4443 20.8282 28.4443 16.7778C28.4443 12.7286 31.7284 9.44446 35.7777 9.44446C39.8281 9.44446 43.111 12.7286 43.111 16.7778C43.111 20.8282 39.8281 24.1111 35.7777 24.1111ZM47.6419 26.9137L43.5022 22.7728C44.7892 21.1179 45.5556 19.0377 45.5556 16.7778C45.5556 11.378 41.1776 7 35.7778 7C30.378 7 26 11.378 26 16.7778C26 22.1776 30.378 26.5556 35.7778 26.5556C38.0377 26.5556 40.1179 25.7892 41.7728 24.5022L45.9137 28.6419C46.3916 29.1198 47.164 29.1198 47.6419 28.6419C48.1198 28.164 48.1198 27.3916 47.6419 26.9137Z" fill="#0A0B09"/>
</g>
</g>
</svg>
