<svg width="18" height="18" viewBox="0 0 18 18" fill="none" xmlns="http://www.w3.org/2000/svg">
<path fill-rule="evenodd" clip-rule="evenodd" d="M14.0388 10.1569C14.8425 9.10144 15.3281 7.77252 15.3281 6.32812C15.3281 2.83325 12.4951 0 9 0C5.50513 0 2.67188 2.83313 2.67188 6.32812C2.67188 7.77209 3.15723 9.1012 3.96118 10.1569C1.75879 10.4181 0 12.2924 0 14.625V15.627C0 16.9355 1.06445 18 2.37305 18H15.627C16.9355 18 18 16.9355 18 15.627V14.625C18 12.2916 16.2405 10.418 14.0388 10.1569ZM9 1.6875C11.563 1.6875 13.6406 3.76514 13.6406 6.32812C13.6406 8.89111 11.563 10.9688 9 10.9688C6.43701 10.9688 4.35938 8.89111 4.35938 6.32812C4.35938 3.76514 6.43701 1.6875 9 1.6875ZM15.627 16.3125C16.0056 16.3125 16.3125 16.0056 16.3125 15.627V14.625C16.3125 13.0717 15.0532 11.8125 13.5 11.8125H12.1592C10.2012 12.9406 7.7915 12.9364 5.84082 11.8125H4.5C2.94678 11.8125 1.6875 13.0717 1.6875 14.625V15.627C1.6875 16.0056 1.99438 16.3125 2.37305 16.3125H15.627Z" fill="#956ADF"/>
</svg>
